<svg data-v-fde0c5aa="" xmlns="http://www.w3.org/2000/svg" viewBox="0 0 300 300" class="font"><!----><defs data-v-fde0c5aa=""><linearGradient data-v-fde0c5aa="" gradientTransform="rotate(25)" id="031a5a88-e02e-4b94-8799-851b5f21310c" x1="0%" y1="0%" x2="100%" y2="0%"><stop data-v-fde0c5aa="" offset="0%" stop-color="#3E6E81" stop-opacity="1"></stop><stop data-v-fde0c5aa="" offset="100%" stop-color="#4587A1" stop-opacity="1"></stop></linearGradient></defs><rect data-v-fde0c5aa="" fill="url(#031a5a88-e02e-4b94-8799-851b5f21310c)" x="0" y="0" width="300px" height="300px" class="logo-background-square"></rect><defs data-v-fde0c5aa=""><!----></defs><g data-v-fde0c5aa="" id="19b275b7-c990-4f30-a7b0-aff251a3d8d3" fill="#ffffff" transform="matrix(4.220218597589109,0,0,4.220218597589109,48.31383075799195,109.69691058190267)"><path d="M3.40 12.18L3.40 12.18L3.40 12.18Q3.49 13.10 3.49 13.29L3.49 13.29L3.49 13.29Q3.49 13.59 3.23 13.59L3.23 13.59L3.23 13.59Q2.98 13.59 2.95 13.37L2.95 13.37L2.95 13.37Q2.95 13.33 2.93 13.16L2.93 13.16L2.93 13.16Q2.91 12.99 2.88 12.66L2.88 12.66L2.88 12.66Q2.86 12.32 2.83 12.03L2.83 12.03L2.79 12.01L2.79 12.01Q2.06 12.01 2.06 12.87L2.06 12.87L2.06 12.87Q2.06 13.50 2.73 13.96L2.73 13.96L2.73 13.96Q3.40 14.43 4.10 14.43L4.10 14.43L4.10 14.43Q4.80 14.43 5.71 13.79L5.71 13.79L5.71 13.79Q5.45 13.61 4.96 13.23L4.96 13.23L4.96 13.23Q3.92 12.42 3.40 12.18ZM2.69 5.98L2.69 5.98L2.69 5.98Q2.84 5.98 2.92 6.18L2.92 6.18L2.92 6.18Q3.00 6.38 3.00 6.58L3.00 6.58L3.00 6.58Q3.00 6.78 3.30 10.88L3.30 10.88L3.30 10.88Q3.77 10.74 4.18 10.74L4.18 10.74L4.18 10.74Q4.59 10.74 5.04 10.91L5.04 10.91L5.04 10.91Q5.49 11.09 5.73 11.24L5.73 11.24L5.73 11.24Q5.96 11.40 6.48 11.79L6.48 11.79L6.48 11.79Q6.99 12.18 7.11 12.26L7.11 12.26L7.11 12.26Q7.48 11.61 7.48 10.88L7.48 10.88L7.48 10.88Q7.48 10.16 6.80 9.02L6.80 9.02L6.80 9.02Q6.12 7.88 5.15 6.85L5.15 6.85L5.15 6.85Q4.17 5.81 2.97 5.07L2.97 5.07L2.97 5.07Q1.76 4.33 0.83 4.33L0.83 4.33L0.83 4.33Q0.11 4.33-0.64 5.04L-0.64 5.04L-0.64 5.04Q-1.23 5.67-1.48 6.19L-1.48 6.19L-1.48 6.19Q-1.55 6.31-1.67 6.31L-1.67 6.31L-1.67 6.31Q-1.79 6.31-1.88 6.24L-1.88 6.24L-1.88 6.24Q-1.97 6.16-1.97 6.06L-1.97 6.06L-1.96 5.96L-1.96 5.96Q-1.61 5.32-0.53 4.30L-0.53 4.30L-0.53 4.30Q0 3.78 0.68 3.42L0.68 3.42L0.68 3.42Q1.36 3.07 2.01 3.07L2.01 3.07L2.01 3.07Q2.66 3.07 3.53 3.40L3.53 3.40L3.53 3.40Q4.40 3.74 5.26 4.38L5.26 4.38L5.26 4.38Q6.13 5.01 6.87 5.82L6.87 5.82L6.87 5.82Q7.60 6.62 8.06 7.66L8.06 7.66L8.06 7.66Q8.51 8.71 8.51 9.86L8.51 9.86L8.51 9.86Q8.51 11.02 7.60 12.57L7.60 12.57L7.60 12.57Q8.12 12.87 8.61 12.87L8.61 12.87L8.61 12.87Q8.76 12.87 9.02 12.69L9.02 12.69L9.02 12.69Q9.27 12.52 9.37 12.52L9.37 12.52L9.37 12.52Q9.56 12.52 9.56 12.71L9.56 12.71L9.56 12.71Q9.56 13.10 8.79 13.78L8.79 13.78L8.79 13.78Q8.01 14.46 7.25 14.46L7.25 14.46L7.25 14.46Q6.86 14.46 6.33 14.18L6.33 14.18L6.33 14.18Q4.48 16.03 2.34 16.03L2.34 16.03L2.34 16.03Q1.55 16.03 1.14 15.61L1.14 15.61L1.14 15.61Q0.73 15.19 0.73 14.39L0.73 14.39L0.73 14.39Q0.73 13.59 1.29 12.61L1.29 12.61L1.29 12.61Q1.85 11.63 2.74 11.13L2.74 11.13L2.74 11.13Q2.37 6.97 2.36 6.89L2.36 6.89L2.36 6.89Q2.35 6.80 2.26 6.73L2.26 6.73L2.26 6.73Q2.17 6.65 2.17 6.50L2.17 6.50L2.17 6.50Q2.17 6.36 2.35 6.17L2.35 6.17L2.35 6.17Q2.53 5.98 2.69 5.98ZM9.86 12.29L9.86 12.29L9.48 12.32L9.48 12.32Q9.23 12.32 9.23 12.19L9.23 12.19L9.23 12.19Q9.23 12.00 9.72 11.45L9.72 11.45L9.72 11.45Q10.22 10.89 10.61 10.89L10.61 10.89L10.61 10.89Q10.78 10.89 10.91 10.99L10.91 10.99L10.91 10.99Q11.05 11.09 11.06 11.23L11.06 11.23L11.13 11.86L11.13 11.86Q11.17 11.91 11.21 11.91L11.21 11.91L11.21 11.91Q11.26 11.91 11.44 11.69L11.44 11.69L11.44 11.69Q12.03 11.00 12.49 11.00L12.49 11.00L12.49 11.00Q12.67 11.00 12.78 11.06L12.78 11.06L12.78 11.06Q12.89 11.12 13.04 11.28L13.04 11.28L13.04 11.28Q13.19 11.44 13.20 11.45L13.20 11.45L13.20 11.45Q13.30 11.41 13.40 11.41L13.40 11.41L13.40 11.41Q13.55 11.41 13.55 11.60L13.55 11.60L13.55 11.60Q13.55 11.79 13.01 12.30L13.01 12.30L13.01 12.30Q12.46 12.81 12.19 12.81L12.19 12.81L12.19 12.81Q11.93 12.81 11.75 12.57L11.75 12.57L11.75 12.57Q11.56 12.33 11.48 12.33L11.48 12.33L11.48 12.33Q11.16 12.33 11.16 12.67L11.16 12.67L11.16 12.67Q11.16 12.92 11.39 13.52L11.39 13.52L11.39 13.52Q11.62 14.13 11.62 14.24L11.62 14.24L11.62 14.24Q11.62 14.52 11.33 14.68L11.33 14.68L11.33 14.68Q11.05 14.84 10.70 14.84L10.70 14.84L10.70 14.84Q10.36 14.84 10.15 14.73L10.15 14.73L10.15 14.73Q9.94 14.62 9.94 14.42L9.94 14.42L10.33 12.73L10.33 12.73Q10.33 12.29 9.86 12.29ZM14.80 12.52L14.80 12.52Q15.04 12.43 15.28 11.98L15.28 11.98L15.28 11.98Q15.53 11.52 15.53 11.23L15.53 11.23L15.53 11.23Q15.53 10.93 15.30 10.92L15.30 10.92L15.30 10.92Q14.97 10.92 14.83 11.22L14.83 11.22L14.83 11.22Q14.69 11.52 14.69 11.88L14.69 11.88L14.69 11.88Q14.69 12.24 14.80 12.52L14.80 12.52ZM16.00 13.43L16.00 13.43L16.00 13.43Q16.39 13.43 16.65 13.25L16.65 13.25L16.65 13.25Q16.91 13.08 17.14 12.80L17.14 12.80L17.14 12.80Q17.37 12.52 17.51 12.52L17.51 12.52L17.51 12.52Q17.64 12.52 17.64 12.64L17.64 12.64L17.64 12.64Q17.64 12.73 17.58 12.84L17.58 12.84L17.58 12.84Q17.12 13.58 16.44 14.15L16.44 14.15L16.44 14.15Q15.75 14.71 14.98 14.71L14.98 14.71L14.98 14.71Q14.21 14.71 13.87 14.34L13.87 14.34L13.87 14.34Q13.52 13.97 13.52 13.36L13.52 13.36L13.52 13.36Q13.52 12.29 14.32 11.18L14.32 11.18L14.32 11.18Q15.12 10.07 15.97 10.07L15.97 10.07L15.97 10.07Q16.42 10.07 16.42 10.43L16.42 10.43L16.42 10.43Q16.42 10.92 16.11 11.45L16.11 11.45L16.11 11.45Q15.81 11.97 14.98 12.87L14.98 12.87L14.98 12.87Q15.36 13.43 16.00 13.43ZM20.62 12.33L20.62 12.33L20.57 12.73L20.57 12.73Q20.57 12.98 20.78 13.25L20.78 13.25L20.78 13.25Q21.00 13.52 21.29 13.52L21.29 13.52L21.29 13.52Q21.52 13.52 21.66 13.43L21.66 13.43L21.66 13.43Q21.97 13.22 22.04 13.14L22.04 13.14L22.04 13.14Q22.12 13.06 22.29 13.06L22.29 13.06L22.29 13.06Q22.47 13.06 22.47 13.19L22.47 13.19L22.47 13.19Q22.47 13.33 21.81 14.07L21.81 14.07L21.81 14.07Q21.60 14.31 21.20 14.57L21.20 14.57L21.20 14.57Q20.79 14.84 20.47 14.84L20.47 14.84L20.47 14.84Q20.16 14.84 20.00 14.73L20.00 14.73L20.00 14.73Q19.84 14.63 19.77 14.41L19.77 14.41L19.77 14.41Q19.68 14.10 19.68 13.65L19.68 13.65L19.68 13.65Q19.68 13.59 19.61 13.59L19.61 13.59L19.61 13.59Q19.54 13.59 19.29 13.87L19.29 13.87L19.29 13.87Q18.51 14.69 18.02 14.69L18.02 14.69L18.02 14.69Q17.54 14.69 17.28 14.43L17.28 14.43L17.28 14.43Q17.02 14.18 17.02 13.79L17.02 13.79L17.02 13.79Q17.02 13.10 17.39 12.48L17.39 12.48L17.39 12.48Q17.75 11.86 18.26 11.48L18.26 11.48L18.26 11.48Q19.38 10.65 19.99 10.65L19.99 10.65L19.99 10.65Q20.92 10.68 20.92 11.31L20.92 11.31L20.92 11.31Q20.92 11.54 20.72 11.75L20.72 11.75L20.72 11.75Q20.52 11.97 20.36 11.97L20.36 11.97L20.36 11.97Q20.19 11.97 19.89 11.68L19.89 11.68L19.89 11.68Q19.60 11.38 19.25 11.38L19.25 11.38L19.25 11.38Q18.90 11.38 18.68 11.67L18.68 11.67L18.68 11.67Q18.45 11.96 18.45 12.40L18.45 12.40L18.45 12.40Q18.45 13.13 19.22 13.13L19.22 13.13L19.22 13.13Q19.53 13.13 19.73 12.98L19.73 12.98L19.73 12.98Q19.94 12.82 20.02 12.64L20.02 12.64L20.02 12.64Q20.26 12.17 20.45 12.17L20.45 12.17L20.45 12.17Q20.62 12.17 20.62 12.33ZM25.24 13.93L25.26 13.71L25.26 13.71Q25.26 13.10 25.12 13.10L25.12 13.10L25.12 13.10Q24.99 13.10 24.76 13.45L24.76 13.45L24.76 13.45Q24.53 13.80 24.26 14.16L24.26 14.16L24.26 14.16Q24.00 14.52 23.77 14.52L23.77 14.52L23.77 14.52Q23.65 14.52 23.39 14.07L23.39 14.07L23.39 14.07Q23.13 13.62 22.82 13.18L22.82 13.18L22.82 13.18Q22.51 12.74 22.27 12.74L22.27 12.74L22.27 12.74Q22.20 12.74 22.20 12.67L22.20 12.67L22.20 12.67Q22.20 12.45 22.74 11.86L22.74 11.86L22.74 11.86Q23.27 11.27 23.50 11.27L23.50 11.27L23.50 11.27Q23.73 11.27 24.18 12.00L24.18 12.00L24.18 12.00Q24.64 12.73 24.79 12.73L24.79 12.73L24.79 12.73Q24.95 12.73 25.42 12.15L25.42 12.15L25.42 12.15Q25.89 11.58 26.16 11.58L26.16 11.58L26.16 11.58Q26.43 11.58 26.56 11.79L26.56 11.79L26.56 11.79Q26.70 12.01 26.72 12.26L26.72 12.26L26.72 12.26Q26.74 12.52 26.77 12.73L26.77 12.73L26.77 12.73Q26.80 12.95 26.88 12.95L26.88 12.95L26.88 12.95Q27.02 12.95 27.60 12.26L27.60 12.26L27.60 12.26Q28.18 11.56 28.45 11.56L28.45 11.56L28.45 11.56Q28.74 11.56 29.43 12.45L29.43 12.45L29.43 12.45Q29.68 12.78 30.06 13.05L30.06 13.05L30.06 13.05Q30.45 13.33 30.70 13.33L30.70 13.33L30.70 13.33Q30.95 13.33 31.19 13.24L31.19 13.24L31.19 13.24Q31.43 13.16 31.60 13.16L31.60 13.16L31.60 13.16Q31.77 13.16 31.77 13.27L31.77 13.27L31.77 13.27Q31.77 13.33 31.72 13.37L31.72 13.37L31.72 13.37Q31.67 13.41 31.48 13.59L31.48 13.59L31.48 13.59Q31.29 13.76 31.17 13.86L31.17 13.86L31.17 13.86Q31.05 13.96 30.83 14.13L30.83 14.13L30.83 14.13Q30.62 14.31 30.46 14.41L30.46 14.41L30.46 14.41Q30.04 14.66 29.67 14.66L29.67 14.66L29.67 14.66Q29.30 14.66 28.85 14.24L28.85 14.24L28.85 14.24Q28.39 13.83 28.06 13.42L28.06 13.42L28.06 13.42Q27.73 13.01 27.58 13.01L27.58 13.01L27.58 13.01Q27.43 13.01 27.08 13.43L27.08 13.43L27.08 13.43Q26.74 13.85 26.38 14.27L26.38 14.27L26.38 14.27Q26.03 14.69 25.77 14.69L25.77 14.69L25.77 14.69Q25.51 14.69 25.37 14.45L25.37 14.45L25.37 14.45Q25.24 14.21 25.24 13.93L25.24 13.93ZM40.81 12.08L40.81 12.08L40.81 12.08Q41.06 11.82 41.22 11.82L41.22 11.82L41.22 11.82Q41.37 11.82 41.37 11.98L41.37 11.98L41.37 11.98Q41.37 12.14 41.26 12.25L41.26 12.25L41.26 12.25Q40.56 13.19 39.39 13.95L39.39 13.95L39.39 13.95Q38.22 14.71 37.01 14.71L37.01 14.71L37.01 14.71Q35.80 14.71 35.16 13.94L35.16 13.94L35.16 13.94Q34.52 13.16 34.52 11.87L34.52 11.87L34.52 11.87Q34.52 10.58 35.11 9.06L35.11 9.06L35.11 9.06Q35.70 7.55 36.65 6.24L36.65 6.24L36.65 6.24Q37.59 4.93 38.94 4.05L38.94 4.05L38.94 4.05Q40.29 3.18 41.68 3.18L41.68 3.18L41.68 3.18Q42.88 3.18 42.88 4.28L42.88 4.28L42.88 4.28Q42.88 5.10 42.28 6.17L42.28 6.17L42.28 6.17Q41.68 7.25 40.75 8.04L40.75 8.04L40.75 8.04Q39.83 8.83 39.05 8.83L39.05 8.83L39.05 8.83Q38.63 8.83 38.63 8.39L38.63 8.39L38.63 8.39Q38.63 8.05 39.02 7.55L39.02 7.55L39.02 7.55Q39.41 7.04 39.75 7.04L39.75 7.04L39.75 7.04Q39.93 7.04 39.89 7.36L39.89 7.36L39.89 7.36Q39.84 7.69 40.19 7.69L40.19 7.69L40.19 7.69Q40.70 7.69 41.14 6.92L41.14 6.92L41.14 6.92Q41.58 6.15 41.58 5.47L41.58 5.47L41.58 5.47Q41.58 4.09 40.43 4.09L40.43 4.09L40.43 4.09Q39.38 4.09 38.41 5.04L38.41 5.04L38.41 5.04Q37.44 5.99 36.87 7.36L36.87 7.36L36.87 7.36Q36.30 8.72 36.30 9.98L36.30 9.98L36.30 9.98Q36.30 11.24 36.91 12.00L36.91 12.00L36.91 12.00Q37.52 12.77 38.81 12.77L38.81 12.77L38.81 12.77Q39.35 12.77 39.86 12.59L39.86 12.59L39.86 12.59Q40.56 12.35 40.81 12.08ZM44.90 12.33L44.90 12.33L44.84 12.73L44.84 12.73Q44.84 12.98 45.06 13.25L45.06 13.25L45.06 13.25Q45.28 13.52 45.57 13.52L45.57 13.52L45.57 13.52Q45.79 13.52 45.93 13.43L45.93 13.43L45.93 13.43Q46.24 13.22 46.32 13.14L46.32 13.14L46.32 13.14Q46.40 13.06 46.57 13.06L46.57 13.06L46.57 13.06Q46.75 13.06 46.75 13.19L46.75 13.19L46.75 13.19Q46.75 13.33 46.09 14.07L46.09 14.07L46.09 14.07Q45.88 14.31 45.47 14.57L45.47 14.57L45.47 14.57Q45.07 14.84 44.75 14.84L44.75 14.84L44.75 14.84Q44.44 14.84 44.27 14.73L44.27 14.73L44.27 14.73Q44.11 14.63 44.04 14.41L44.04 14.41L44.04 14.41Q43.96 14.10 43.96 13.65L43.96 13.65L43.96 13.65Q43.96 13.59 43.89 13.59L43.89 13.59L43.89 13.59Q43.82 13.59 43.57 13.87L43.57 13.87L43.57 13.87Q42.78 14.69 42.30 14.69L42.30 14.69L42.30 14.69Q41.82 14.69 41.56 14.43L41.56 14.43L41.56 14.43Q41.30 14.18 41.30 13.79L41.30 13.79L41.30 13.79Q41.30 13.10 41.66 12.48L41.66 12.48L41.66 12.48Q42.03 11.86 42.53 11.48L42.53 11.48L42.53 11.48Q43.65 10.65 44.27 10.65L44.27 10.65L44.27 10.65Q45.19 10.68 45.19 11.31L45.19 11.31L45.19 11.31Q45.19 11.54 45.00 11.75L45.00 11.75L45.00 11.75Q44.80 11.97 44.63 11.97L44.63 11.97L44.63 11.97Q44.46 11.97 44.17 11.68L44.17 11.68L44.17 11.68Q43.88 11.38 43.53 11.38L43.53 11.38L43.53 11.38Q43.18 11.38 42.95 11.67L42.95 11.67L42.95 11.67Q42.73 11.96 42.73 12.40L42.73 12.40L42.73 12.40Q42.73 13.13 43.50 13.13L43.50 13.13L43.50 13.13Q43.81 13.13 44.01 12.98L44.01 12.98L44.01 12.98Q44.21 12.82 44.30 12.64L44.30 12.64L44.30 12.64Q44.53 12.17 44.73 12.17L44.73 12.17L44.73 12.17Q44.90 12.17 44.90 12.33ZM46.47 12.29L46.47 12.29L46.09 12.32L46.09 12.32Q45.84 12.32 45.84 12.19L45.84 12.19L45.84 12.19Q45.84 12.00 46.33 11.45L46.33 11.45L46.33 11.45Q46.83 10.89 47.22 10.89L47.22 10.89L47.22 10.89Q47.39 10.89 47.52 10.99L47.52 10.99L47.52 10.99Q47.66 11.09 47.67 11.23L47.67 11.23L47.74 11.86L47.74 11.86Q47.78 11.91 47.82 11.91L47.82 11.91L47.82 11.91Q47.87 11.91 48.05 11.69L48.05 11.69L48.05 11.69Q48.64 11.00 49.10 11.00L49.10 11.00L49.10 11.00Q49.28 11.00 49.39 11.06L49.39 11.06L49.39 11.06Q49.50 11.12 49.65 11.28L49.65 11.28L49.65 11.28Q49.80 11.44 49.81 11.45L49.81 11.45L49.81 11.45Q49.91 11.41 50.01 11.41L50.01 11.41L50.01 11.41Q50.16 11.41 50.16 11.60L50.16 11.60L50.16 11.60Q50.16 11.79 49.62 12.30L49.62 12.30L49.62 12.30Q49.07 12.81 48.80 12.81L48.80 12.81L48.80 12.81Q48.54 12.81 48.36 12.57L48.36 12.57L48.36 12.57Q48.17 12.33 48.09 12.33L48.09 12.33L48.09 12.33Q47.77 12.33 47.77 12.67L47.77 12.67L47.77 12.67Q47.77 12.92 48.00 13.52L48.00 13.52L48.00 13.52Q48.23 14.13 48.23 14.24L48.23 14.24L48.23 14.24Q48.23 14.52 47.94 14.68L47.94 14.68L47.94 14.68Q47.66 14.84 47.31 14.84L47.31 14.84L47.31 14.84Q46.97 14.84 46.76 14.73L46.76 14.73L46.76 14.73Q46.55 14.62 46.55 14.42L46.55 14.42L46.94 12.73L46.94 12.73Q46.94 12.29 46.47 12.29Z"></path></g><!----><!----></svg>